# xmcd
#
# Track frame offsets:
#	150
#	13925
#	29727
#	48967
#	65635
#	84513
#	103719
#	119026
#	136015
#	151376
#
# Disc length: 2216 seconds
#
# Revision: 1
# Processed by: cddbd v1.5.2PL0 Copyright (c) Steve Scherf et al.
# Submitted via: audiograbber 1.83.01
#
DISCID=8808a60a
DTITLE=Ron Beer - Teh Blues Dont Say It All
DYEAR=2014
DGENRE=
TTITLE0=Teh Blues Don´t Say It All
TTITLE1=If We Don´t Talk
TTITLE2=I Understand
TTITLE3=Close To The Fire
TTITLE4=Give Me Shelter
TTITLE5=Puppets And Pantomime
TTITLE6=Call Me A Doctor
TTITLE7=Who´s Fooling Who
TTITLE8=Farm Kids
TTITLE9=Play House
EXTD=
EXTT0=
EXTT1=
EXTT2=
EXTT3=
EXTT4=
EXTT5=
EXTT6=
EXTT7=
EXTT8=
EXTT9=
PLAYORDER=
